<svg width="15" height="15" viewBox="0 0 15 15" fill="none" xmlns="http://www.w3.org/2000/svg">
<g clip-path="url(#clip0_301_123)">
<path fill-rule="evenodd" clip-rule="evenodd" d="M7.5 11.25C9.57106 11.25 11.25 9.57106 11.25 7.5C11.25 5.42893 9.57106 3.75 7.5 3.75C5.42893 3.75 3.75 5.42893 3.75 7.5C3.75 9.57106 5.42893 11.25 7.5 11.25ZM7.5 10C8.88069 10 10 8.88069 10 7.5C10 6.11929 8.88069 5 7.5 5C6.11929 5 5 6.11929 5 7.5C5 8.88069 6.11929 10 7.5 10Z" fill="white"/>
<path d="M11.25 3.125C10.9048 3.125 10.625 3.40482 10.625 3.75C10.625 4.09518 10.9048 4.375 11.25 4.375C11.5952 4.375 11.875 4.09518 11.875 3.75C11.875 3.40482 11.5952 3.125 11.25 3.125Z" fill="white"/>
<path fill-rule="evenodd" clip-rule="evenodd" d="M1.03373 2.67254C0.625 3.47471 0.625 4.52481 0.625 6.625V8.375C0.625 10.4752 0.625 11.5253 1.03373 12.3274C1.39325 13.0331 1.96693 13.6068 2.67254 13.9663C3.47471 14.375 4.52481 14.375 6.625 14.375H8.375C10.4752 14.375 11.5253 14.375 12.3274 13.9663C13.0331 13.6068 13.6068 13.0331 13.9663 12.3274C14.375 11.5253 14.375 10.4752 14.375 8.375V6.625C14.375 4.52481 14.375 3.47471 13.9663 2.67254C13.6068 1.96693 13.0331 1.39325 12.3274 1.03373C11.5253 0.625 10.4752 0.625 8.375 0.625H6.625C4.52481 0.625 3.47471 0.625 2.67254 1.03373C1.96693 1.39325 1.39325 1.96693 1.03373 2.67254ZM8.375 1.875H6.625C5.55428 1.875 4.82641 1.87598 4.2638 1.92194C3.71578 1.96671 3.43553 2.04787 3.24003 2.14748C2.76962 2.38717 2.38717 2.76962 2.14748 3.24003C2.04787 3.43553 1.96671 3.71578 1.92194 4.2638C1.87598 4.82641 1.875 5.55428 1.875 6.625V8.375C1.875 9.44575 1.87598 10.1736 1.92194 10.7362C1.96671 11.2843 2.04787 11.5645 2.14748 11.76C2.38717 12.2304 2.76962 12.6128 3.24003 12.8525C3.43553 12.9521 3.71578 13.0333 4.2638 13.0781C4.82641 13.124 5.55428 13.125 6.625 13.125H8.375C9.44575 13.125 10.1736 13.124 10.7362 13.0781C11.2843 13.0333 11.5645 12.9521 11.76 12.8525C12.2304 12.6128 12.6128 12.2304 12.8525 11.76C12.9521 11.5645 13.0333 11.2843 13.0781 10.7362C13.124 10.1736 13.125 9.44575 13.125 8.375V6.625C13.125 5.55428 13.124 4.82641 13.0781 4.2638C13.0333 3.71578 12.9521 3.43553 12.8525 3.24003C12.6128 2.76962 12.2304 2.38717 11.76 2.14748C11.5645 2.04787 11.2843 1.96671 10.7362 1.92194C10.1736 1.87598 9.44575 1.875 8.375 1.875Z" fill="white"/>
</g>
<defs>
<clipPath id="clip0_301_123">
<rect width="15" height="15" fill="white"/>
</clipPath>
</defs>
</svg>
